<svg width="42" height="51" viewBox="0 0 42 51" fill="none" xmlns="http://www.w3.org/2000/svg">
<path d="M41.0585 5.70181V4.95417L40.8878 4.85601C39.3465 3.97901 36.9363 3.4337 34.5978 3.4337C34.0108 3.4337 33.4406 3.4667 32.8979 3.53528C31.9306 2.3076 29.8153 0.412073 27.8246 0.113403L27.5653 0.140322L27.3077 0.715121L27.5187 0.885286C27.608 0.95739 27.8448 1.18919 28.0783 1.41672C28.1427 1.47921 28.2063 1.5418 28.2667 1.59991C24.2862 3.32698 25.4902 9.83575 25.5015 9.89995C25.9476 12.4136 26.8077 19.321 25.4604 21.0784C25.2671 21.332 25.0375 21.4535 24.7606 21.4535C24.5721 21.4535 24.3563 21.3988 24.1204 21.2903C22.2892 20.4463 19.6696 20.8509 16.4485 22.4677C16.4203 22.4572 16.3906 22.4477 16.3592 22.4321C16.1353 22.3314 15.839 22.1299 15.5224 21.9164C14.8975 21.4918 14.1897 21.0107 13.5858 21.0107C13.2403 21.0133 12.9874 21.0307 12.8578 21.2452C12.7845 21.3676 12.7926 21.4892 12.8151 21.5777L12.8023 21.5942L12.82 21.7444C12.8627 22.0935 12.9955 22.3783 13.1791 22.6214C12.4801 22.3088 11.9575 22.011 11.947 22.0049C11.7183 21.8729 11.4582 21.9702 11.4687 21.9988L11.2682 22.0171L11.1949 22.2177C10.8865 23.0617 11.2891 23.7077 11.8302 24.2226C11.5097 24.174 11.1844 24.1618 10.8872 24.22L10.5417 24.2947L10.4886 24.4979C10.3059 25.202 10.7061 25.6275 11.1369 25.9349C11.1272 25.9393 11.1192 25.9444 11.1096 25.948L10.8761 26.0687L10.9083 26.2215C8.41833 25.7717 6.30533 25.5452 4.62228 25.5452C1.9753 25.5452 0.471857 26.1026 0.0257575 27.2514L0 27.716L0.0563692 27.8054C0.287493 28.1665 0.707043 28.3541 1.33513 28.3741C1.5614 29.2536 2.49798 29.7573 3.43367 30.016V30.8339L3.66717 30.9077C3.86045 30.966 4.08187 31.0449 4.32191 31.1292C5.17309 31.4296 6.23123 31.8021 7.19347 31.8021C7.44232 31.8021 7.67424 31.7769 7.88684 31.7258C9.79616 31.2717 12.1878 31.1952 15.4653 31.4922V31.6093L18.8507 32.2597V49.0368C18.792 49.0802 18.746 49.1159 18.7186 49.1384C18.4465 49.3521 18.3892 49.761 18.5866 50.051C18.7871 50.3462 19.1664 50.4043 19.4378 50.1959C19.7253 49.9693 20.1351 49.7809 20.2414 49.8451C20.3204 50.1326 20.5619 50.3209 20.8268 50.3209C20.8855 50.3209 20.9403 50.3157 20.9943 50.2957C21.3173 50.1967 21.5073 49.8329 21.4115 49.4847C21.2931 49.0298 21.0257 48.7068 20.6545 48.5695C20.4637 48.4982 19.8437 48.4904 19.6504 48.5139V32.6059L20.8913 32.9262C21.0612 32.855 21.3744 32.8299 21.7409 32.8221V49.6644H21.7996C21.7175 49.8667 21.7288 50.1115 21.8601 50.3069C22.0606 50.5961 22.4415 50.6542 22.7113 50.4441C22.9964 50.2201 23.4062 50.0291 23.5133 50.0985C23.5938 50.386 23.8346 50.5734 24.1004 50.5734C24.1559 50.5734 24.2107 50.5665 24.2662 50.5465C24.5883 50.4527 24.7768 50.0863 24.685 49.7373C24.565 49.2832 24.2976 48.9549 23.9264 48.8203C23.6099 48.7031 22.849 48.7517 22.5421 48.855V33.0435L23.9151 33.2267L23.9852 33.2067C27.0114 32.3245 31.0249 30.6426 31.1433 26.2056C31.4364 25.7419 31.1811 24.2632 30.2929 19.8106C29.4054 15.3606 28.0775 8.69908 28.8337 6.97457L41.0585 5.70181Z" fill="#010002"/>
</svg>
